<svg width="187" height="30" viewBox="0 0 187 30" fill="none" xmlns="http://www.w3.org/2000/svg">
<path d="M60.064 27H63.832L66.976 15.912L70.144 27H73.912L78.616 10.2H75.136L71.92 22.656L68.392 10.2H65.56L62.056 22.656L58.84 10.2H55.36L60.064 27ZM84.6749 27.336C88.2029 27.336 91.0349 24.576 91.0349 21C91.0349 17.424 88.2029 14.664 84.6749 14.664C81.1469 14.664 78.3389 17.424 78.3389 21C78.3389 24.576 81.1469 27.336 84.6749 27.336ZM84.6749 24.312C82.8509 24.312 81.4349 22.944 81.4349 21C81.4349 19.056 82.8509 17.688 84.6749 17.688C86.5229 17.688 87.9389 19.056 87.9389 21C87.9389 22.944 86.5229 24.312 84.6749 24.312ZM96.3089 17.064V15H93.2129V27H96.3089V21.264C96.3089 18.744 98.3489 18.024 99.9569 18.216V14.76C98.4449 14.76 96.9329 15.432 96.3089 17.064ZM112.832 27L107.864 20.928L112.688 15H108.992L104.864 20.28V10.2H101.768V27H104.864V21.552L109.232 27H112.832Z" fill="white"/>
<path d="M120.089 27.336C122.441 27.336 124.481 26.088 125.513 24.216L122.825 22.68C122.345 23.664 121.313 24.264 120.065 24.264C118.217 24.264 116.849 22.896 116.849 21C116.849 19.08 118.217 17.712 120.065 17.712C121.289 17.712 122.321 18.336 122.801 19.32L125.465 17.76C124.481 15.912 122.441 14.664 120.089 14.664C116.441 14.664 113.753 17.424 113.753 21C113.753 24.576 116.441 27.336 120.089 27.336ZM136.083 15V16.416C135.219 15.336 133.923 14.664 132.171 14.664C128.979 14.664 126.339 17.424 126.339 21C126.339 24.576 128.979 27.336 132.171 27.336C133.923 27.336 135.219 26.664 136.083 25.584V27H139.179V15H136.083ZM132.747 24.384C130.851 24.384 129.435 23.016 129.435 21C129.435 18.984 130.851 17.616 132.747 17.616C134.667 17.616 136.083 18.984 136.083 21C136.083 23.016 134.667 24.384 132.747 24.384ZM148.85 17.976V15H146.138V11.64L143.042 12.576V15H140.954V17.976H143.042V22.968C143.042 26.208 144.506 27.48 148.85 27V24.192C147.074 24.288 146.138 24.264 146.138 22.968V17.976H148.85ZM152.569 13.56C153.625 13.56 154.489 12.696 154.489 11.664C154.489 10.632 153.625 9.744 152.569 9.744C151.537 9.744 150.673 10.632 150.673 11.664C150.673 12.696 151.537 13.56 152.569 13.56ZM151.033 27H154.129V15H151.033V27ZM162.675 27.336C166.203 27.336 169.035 24.576 169.035 21C169.035 17.424 166.203 14.664 162.675 14.664C159.147 14.664 156.339 17.424 156.339 21C156.339 24.576 159.147 27.336 162.675 27.336ZM162.675 24.312C160.851 24.312 159.435 22.944 159.435 21C159.435 19.056 160.851 17.688 162.675 17.688C164.523 17.688 165.939 19.056 165.939 21C165.939 22.944 164.523 24.312 162.675 24.312ZM177.885 14.664C176.277 14.664 175.029 15.264 174.309 16.344V15H171.213V27H174.309V20.52C174.309 18.432 175.437 17.544 176.949 17.544C178.341 17.544 179.325 18.384 179.325 20.016V27H182.421V19.632C182.421 16.44 180.429 14.664 177.885 14.664Z" fill="#A3BFFA"/>
<path fill-rule="evenodd" clip-rule="evenodd" d="M42.9111 11.6044L35.2129 7.15965V27.8051H44.2129V29.8051H0.212891V27.8051H4.21289V15.0858L0.485071 16.0177L0 14.0774L21.0896 8.80505H24.2119C23.8673 9.62247 23.6383 10.4844 23.5316 11.3637L23.0495 15.3386L28.2129 12.3574V27.8051H33.2129V7.16087L25.5166 11.6045C25.7383 9.77684 26.6279 8.04857 28.082 6.80504H23.9629C25.3311 4.98338 27.5098 3.80504 29.9639 3.80504C30.1807 3.80504 30.3965 3.81431 30.6084 3.8325L25.0166 0.603865C27.1123 -0.289568 29.5879 -0.220842 31.7129 1.00609C32.752 1.60582 33.5938 2.41673 34.2139 3.35325C34.834 2.41673 35.6748 1.60582 36.7139 1.00609C38.8389 -0.220842 41.3154 -0.289568 43.4111 0.603865L37.8184 3.8325C38.0312 3.81431 38.2471 3.80504 38.4648 3.80504C40.918 3.80504 43.0967 4.98338 44.4648 6.80504H40.3447C41.7998 8.04857 42.6895 9.77684 42.9111 11.6044ZM24.2129 27.8051V17.8051H18.2129V27.8051H24.2129ZM13.2129 19.8051C13.2129 20.9096 12.3175 21.8051 11.2129 21.8051C10.1083 21.8051 9.21289 20.9096 9.21289 19.8051C9.21289 18.7005 10.1083 17.8051 11.2129 17.8051C12.3175 17.8051 13.2129 18.7005 13.2129 19.8051Z" fill="#A3BFFA"/>
</svg>
